####
#
# OBJ File Generated by Meshlab
#
####
# Object model.obj
#
# Vertices: 48
# Faces: 27
#
####
mtllib ./model.obj.mtl

vn 0.447214 -0.894427 0.000000
v 0.396035 0.730013 0.039264
vn 0.894427 -0.447214 0.000000
v 0.396035 0.730013 0.730271
vn 0.894427 0.447214 0.000000
v 0.396035 0.767839 0.039264
vn 0.447214 0.894427 0.000000
v 0.396035 0.767839 0.730271
vn 0.707107 0.707107 0.000000
v 0.396035 0.039987 0.039264
vn 0.707107 0.707107 0.000000
v 0.396035 0.039987 0.730271
vn 0.707107 -0.707107 0.000000
v 0.396035 0.002161 0.039264
vn 0.707107 -0.707107 0.000000
v 0.396035 0.002161 0.730271
vn 0.707107 0.000000 -0.707107
v 0.394188 0.039944 0.392633
vn 0.707107 0.000000 0.707107
v 0.394188 0.039944 0.402633
vn 0.707107 0.000000 -0.707107
v 0.394188 0.730047 0.392633
vn 0.707107 0.000000 0.707107
v 0.394188 0.730047 0.402633
vn 0.447214 -0.894427 0.000000
v 0.399237 0.000636 0.000790
vn 0.666667 -0.333333 0.666667
v 0.399237 0.000636 0.038790
vn 0.894427 0.447214 0.000000
v 0.399237 0.769355 0.000790
vn 0.408248 0.816497 0.408248
v 0.399237 0.769355 0.038790
vn 0.408248 -0.816497 -0.408248
v 0.399237 0.000636 0.730955
vn 0.666667 -0.333333 0.666667
v 0.399237 0.000636 0.768956
vn 0.666667 0.333333 -0.666667
v 0.399237 0.769355 0.730955
vn 0.408248 0.816497 0.408248
v 0.399237 0.769355 0.768956
vn 0.707107 -0.707107 0.000000
v 0.395957 0.379996 0.730528
vn 0.707107 0.707107 0.000000
v 0.395957 0.389996 0.730528
vn 0.707107 -0.707107 0.000000
v 0.395957 0.379996 0.039530
vn 0.707107 0.707107 0.000000
v 0.395957 0.389996 0.039530
vn -0.707107 -0.707107 0.000000
v 0.009932 0.730013 0.039264
vn -0.707107 -0.707107 0.000000
v 0.009932 0.730013 0.730271
vn -0.707107 0.707107 0.000000
v 0.009932 0.767839 0.039264
vn -0.707107 0.707107 0.000000
v 0.009932 0.767839 0.730271
vn -0.447214 0.894427 0.000000
v 0.009932 0.039987 0.039264
vn -0.894427 0.447214 0.000000
v 0.009932 0.039987 0.730271
vn -0.894427 -0.447214 0.000000
v 0.009932 0.002161 0.039264
vn -0.447214 -0.894427 0.000000
v 0.009932 0.002161 0.730271
vn -0.447214 -0.000000 -0.894427
v 0.012335 0.039944 0.392633
vn -0.894427 -0.000000 0.447214
v 0.012335 0.039944 0.402633
vn -0.894427 -0.000000 -0.447214
v 0.012335 0.730047 0.392633
vn -0.447214 -0.000000 0.894427
v 0.012335 0.730047 0.402633
vn -0.707107 -0.707107 0.000000
v 0.007352 0.000636 0.000790
vn -0.666667 -0.666667 0.333333
v 0.007352 0.000636 0.038790
vn -0.707107 0.707107 0.000000
v 0.007352 0.769355 0.000790
vn -0.408248 0.408248 0.816497
v 0.007352 0.769355 0.038790
vn -0.408248 -0.408248 -0.816497
v 0.007352 0.000636 0.730955
vn -0.666667 -0.666667 0.333333
v 0.007352 0.000636 0.768956
vn -0.666667 0.666667 -0.333333
v 0.007352 0.769355 0.730955
vn -0.408248 0.408248 0.816497
v 0.007352 0.769355 0.768956
vn -0.447214 -0.894427 0.000000
v 0.014104 0.379996 0.730528
vn -0.894427 0.447214 0.000000
v 0.014104 0.389996 0.730528
vn -0.894427 -0.447214 0.000000
v 0.014104 0.379996 0.039530
vn -0.447214 0.894427 0.000000
v 0.014104 0.389996 0.039530
# 48 vertices, 0 vertices normals


usemtl material_0
vt 0.000000 0.000000
vt 0.000000 0.000000
f 4/1/4 2/1/2 1/1/1 3/2/3
f 5/1/5 6/1/6 8/1/8 7/2/7
f 12/1/12 10/1/10 9/1/9 11/2/11
f 16/1/16 14/1/14 13/1/13 15/2/15
f 20/1/20 18/1/18 17/1/17 19/2/19
f 24/1/24 22/1/22 21/1/21 23/2/23
f 25/1/25 26/1/26 28/1/28 27/2/27
f 32/1/32 30/1/30 29/1/29 31/2/31
f 33/1/33 34/1/34 36/1/36 35/2/35
f 37/1/37 38/1/38 40/1/40 39/2/39
f 41/1/41 42/1/42 44/1/44 43/2/43
f 45/1/45 46/1/46 48/1/48 47/2/47
f 2/1/2 26/1/26 25/1/25 1/2/1
f 3/1/3 27/1/27 28/1/28 4/2/4
f 5/1/5 29/1/29 30/1/30 6/2/6
f 8/1/8 32/1/32 31/1/31 7/2/7
f 9/1/9 33/1/33 35/1/35 11/2/11
f 12/1/12 36/1/36 34/1/34 10/2/10
f 14/1/14 38/1/38 37/1/37 13/2/13
f 15/1/15 39/1/39 40/1/40 16/2/16
f 16/1/16 40/1/40 38/1/38 14/2/14
f 18/1/18 42/1/42 41/1/41 17/2/17
f 19/1/19 43/1/43 44/1/44 20/2/20
f 17/1/17 41/1/41 43/1/43 19/2/19
f 20/1/20 44/1/44 42/1/42 18/2/18
f 21/1/21 45/1/45 47/1/47 23/2/23
vt -303404032.000000 0.000000
f 24/1/24 48/1/48 46/1/46 22/3/22
# 27 faces, 3 coords texture

# End of File
